<svg width="209" height="59" viewBox="0 0 209 59" fill="none" xmlns="http://www.w3.org/2000/svg">
<path d="M0 28.2335V58.3257H18.9235V54.4904H4.55176V28.2335H0Z" fill="white"/>
<path d="M22.7466 43.1532H26.9612C27.467 40.8773 29.3214 39.4443 31.808 39.4443C34.7161 39.4443 36.4019 40.6244 36.4019 42.4367C36.4019 44.249 35.3061 44.9233 32.4823 45.3869C29.2792 45.9348 21.693 46.272 21.693 52.3831C21.693 55.6705 24.2639 58.8736 29.3214 58.8736C33.9574 58.8736 35.7697 56.2606 36.4019 54.5326H36.4441V55.4598C36.4441 56.5134 36.4441 57.3985 36.5283 58.3257H41.038C40.8272 57.1456 40.7008 55.2491 40.7008 53.6054V44.7547C40.7008 40.7087 39.3521 35.9462 31.7237 35.9462C26.034 35.9462 23.2524 39.8237 22.7466 43.1532ZM25.9919 52.2989C25.9919 50.2758 27.7198 49.3908 30.7965 48.8007C34.9689 48.0843 36.0226 46.862 36.4862 45.5555V48.2107C36.4862 53.4789 33.4095 55.4598 30.2907 55.4598C27.6777 55.4598 25.9919 54.1954 25.9919 52.2989Z" fill="white"/>
<path d="M57.5127 35.9884C53.5932 35.9884 51.0223 38.5593 50.2636 40.7087H50.2215V28.2335H45.8383V58.3257H50.2215V54.2797H50.2636C51.0644 56.3449 53.6353 58.8315 57.4706 58.8315C63.5396 58.8315 67.5435 54.1954 67.5435 47.3678C67.5435 40.5401 63.5818 35.9884 57.5127 35.9884ZM49.9686 47.3678C49.9686 43.3218 52.1181 39.5708 56.5855 39.5708C60.8844 39.5708 63.2024 42.9003 63.2024 47.3678C63.2024 51.8774 60.9687 55.2491 56.5855 55.2491C52.0759 55.2491 49.9686 51.4981 49.9686 47.3678Z" fill="white"/>
<path d="M76.9563 51.9856V41.0037H83.8608V36.5363H76.9563V29.1186L71.1401 31.6895V36.5363V41.0037V52.8904C71.1401 56.0158 72.8432 58.3257 76.3169 58.3257H82.809V53.7318H78.6952C77.4534 53.7318 76.9563 53.1533 76.9563 51.9856Z" fill="white"/>
<path d="M87.0998 36.5363V58.3257L92.9153 58.3203V41.0037C92.9153 41.0037 95.09 41.0037 99.5329 41.0037V36.5363H87.0998Z" fill="white"/>
<path d="M101.333 43.2375H106.854C107.402 41.3409 108.877 40.1608 110.9 40.1608C113.134 40.1608 114.609 41.088 114.609 42.7317C114.609 44.6283 113.092 44.9233 110.31 45.3026C107.318 45.7241 100.364 46.4827 100.364 52.3831C100.364 56.2184 103.398 58.9158 108.034 58.9158C111.87 58.9158 113.724 56.9771 114.693 55.2069H114.736V56.387C114.736 56.9349 114.82 57.6935 114.946 58.3257H120.847C120.51 56.8506 120.425 54.4061 120.425 52.7203V45.3026C120.425 39.3179 117.264 35.8198 110.858 35.8198C105.126 35.8198 102.008 39.5286 101.333 43.2375ZM106.306 52.046C106.306 50.613 107.402 49.6858 110.226 49.1379C113.008 48.5479 114.188 47.6628 114.693 46.6934V48.2107C114.693 53.1839 112.333 54.659 109.762 54.659C107.36 54.659 106.306 53.4368 106.306 52.046Z" fill="white"/>
<path d="M145.906 50.8237H140.385C139.753 53.3104 137.688 54.364 135.496 54.364C131.872 54.364 129.638 51.3295 129.638 47.4521C129.638 43.5746 131.872 40.5401 135.496 40.5401C137.688 40.5401 139.542 41.5516 140.259 43.8275H145.822C145.064 38.8543 140.765 35.9041 135.539 35.9041C129.217 35.9041 123.738 40.0765 123.738 47.4099C123.738 54.7012 129.217 59.0001 135.539 59.0001C140.723 59.0001 145.064 56.1341 145.906 50.8237Z" fill="white"/>
<path d="M155.611 58.3257V51.7088L157.508 49.8965L163.619 58.3257H170.573L161.385 46.0191L170.531 36.5363H163.408L155.611 45.134V28.2335L149.789 28.2335V58.3257H155.611Z" fill="white"/>
<path fill-rule="evenodd" clip-rule="evenodd" d="M193.414 17.7074C193.432 17.7259 193.447 17.748 193.457 17.7723L193.521 17.928C193.532 17.9523 193.537 17.9783 193.537 18.0046V26.8989C193.537 26.9252 193.532 26.9512 193.521 26.9754L193.457 27.1312C193.447 27.1555 193.432 27.1775 193.414 27.1961L188.096 32.5134C188.059 32.5509 188.008 32.572 187.955 32.572H187.684C187.574 32.572 187.484 32.4825 187.484 32.372V22.0589C187.484 21.9484 187.395 21.8589 187.284 21.8589H176.971C176.861 21.8589 176.771 21.7693 176.771 21.6589V21.3882C176.771 21.3352 176.792 21.2843 176.83 21.2468L182.147 15.9294C182.165 15.9109 182.188 15.8961 182.212 15.8861L182.368 15.8216C182.392 15.8115 182.418 15.8063 182.444 15.8063H191.338C191.365 15.8063 191.391 15.8115 191.415 15.8216L191.571 15.8861C191.595 15.8961 191.617 15.9109 191.636 15.9294L193.414 17.7074ZM192.358 15.2074C192.339 15.1889 192.324 15.1668 192.314 15.1425L192.25 14.9868C192.24 14.9625 192.235 14.9365 192.235 14.9102V6.01589C192.235 5.98962 192.24 5.96361 192.25 5.93935L192.314 5.78358C192.324 5.75932 192.339 5.73727 192.358 5.7187L197.675 0.401352C197.713 0.363845 197.763 0.342773 197.816 0.342773H198.087C198.198 0.342773 198.287 0.432316 198.287 0.542773V10.8559C198.287 10.9664 198.377 11.0559 198.487 11.0559H208.8C208.911 11.0559 209 11.1455 209 11.2559V11.5266C209 11.5796 208.979 11.6305 208.942 11.668L203.624 16.9854C203.606 17.0039 203.584 17.0187 203.559 17.0287L203.404 17.0932C203.379 17.1033 203.353 17.1085 203.327 17.1085H194.433C194.407 17.1085 194.381 17.1033 194.356 17.0932L194.2 17.0287C194.176 17.0187 194.154 17.0039 194.136 16.9854L192.358 15.2074Z" fill="#FCA311"/>
</svg>
