<svg width="21" height="21" viewBox="0 0 21 21" fill="none" xmlns="http://www.w3.org/2000/svg">
<path d="M2.20091 17.8402L2.10285 18.3305H2.10285L2.20091 17.8402ZM18.7991 17.8402L18.8972 18.3305L18.7991 17.8402ZM18.913 3.30278L19.0178 2.81388L18.913 3.30278ZM2.08696 3.30278L2.19172 3.79168H2.19172L2.08696 3.30278ZM8.5 7.49999L8.75725 7.07124C8.60278 6.97856 8.4104 6.97613 8.25365 7.06489C8.0969 7.15364 8 7.31985 8 7.49999H8.5ZM8.5 13.5H8C8 13.6801 8.0969 13.8463 8.25365 13.9351C8.41041 14.0238 8.60278 14.0214 8.75725 13.9287L8.5 13.5ZM13.5 10.5L13.7572 10.9287C13.9079 10.8384 14 10.6756 14 10.5C14 10.3244 13.9079 10.1616 13.7572 10.0712L13.5 10.5ZM0 5.26582V15.7654H1V5.26582H0ZM21 15.7654V5.26582H20V15.7654H21ZM2.10285 18.3305C7.64606 19.4391 13.3539 19.4391 18.8972 18.3305L18.701 17.3499C13.2873 18.4326 7.71271 18.4326 2.29897 17.3499L2.10285 18.3305ZM19.0178 2.81388C13.403 1.61071 7.597 1.61071 1.98219 2.81388L2.19172 3.79168C7.66841 2.6181 13.3316 2.6181 18.8083 3.79168L19.0178 2.81388ZM21 5.26582C21 4.08339 20.174 3.06163 19.0178 2.81388L18.8083 3.79168C19.5034 3.94063 20 4.55493 20 5.26582H21ZM20 15.7654C20 16.5356 19.4563 17.1988 18.701 17.3499L18.8972 18.3305C20.1199 18.0859 21 17.0123 21 15.7654H20ZM0 15.7654C0 17.0123 0.880133 18.0859 2.10285 18.3305L2.29897 17.3499C1.54367 17.1988 1 16.5356 1 15.7654H0ZM1 5.26582C1 4.55493 1.49661 3.94063 2.19172 3.79168L1.98219 2.81388C0.826006 3.06163 0 4.08339 0 5.26582H1ZM8 7.49999V13.5H9V7.49999H8ZM8.75725 13.9287L13.7572 10.9287L13.2428 10.0712L8.24275 13.0712L8.75725 13.9287ZM13.7572 10.0712L8.75725 7.07124L8.24275 7.92873L13.2428 10.9287L13.7572 10.0712Z" fill="white"/>
</svg>
